<?xml version="1.0" encoding="utf-8"?>
<!-- Generator: Adobe Illustrator 22.1.0, SVG Export Plug-In . SVG Version: 6.00 Build 0)  -->
<svg version="1.1" id="Ebene_1" xmlns="http://www.w3.org/2000/svg" xmlns:xlink="http://www.w3.org/1999/xlink" x="0px" y="0px"
	 viewBox="0 0 500 400" style="enable-background:new 0 0 500 400;" xml:space="preserve">
<style type="text/css">
	.st0{fill:#FFFFFF;}
</style>
<title>Zeichenfläche 1</title>
<path class="st0" d="M444.9,170.5c-3.5,12.7-13.5,32.2-25.3,32.2c-5.3,0-10.4-1.9-14.4-5.5c13.2-24.2,25-39.4,38.8-53.8
	c-5.8-15.8-22.2-25.6-39.1-25.6c-13.8,0-25.5,4.7-34.1,18.8c6,14.4,13.4,31,22.9,45.3l-0.6,0.6c-10.9-13.5-32.8-42-39.7-64.7
	c-31.9,4.3-45.2,22.2-45.2,43.7c0,12.7,4.6,26.8,12.9,40l0.6,1.4c-4.6,4.3-8.3,6.3-11.8,6.3c-6.8,0-9.6-2.5-11.6-6.7
	c1-30.5,6.3-55.1,15.6-72.4c-7.5-7.2-20.1-12.4-32.2-12.4c-9.8,0-15.4,0.7-22.3,5c8.1,4.9,14.8,16,21.1,24l-0.6,0.6
	c-21.6-21-40.3-29.6-56.1-29.6c-6.2,0-12.4,1.4-18,4c-3.1,10-11,27.3-29.7,32.9c-5.8,12.7-9.6,26.2-11.3,40
	c-3,5.6-6.4,11.1-10.1,16.3c0-18.1,0-34.4,5.8-54.2c-15.8,0-21.3-11.7-21.3-24c0-12.9,6.3-29.4,15.3-41.2h0.6
	c-5.2,8.6-12.9,25.9-12.9,39.4c0,11.2,5.5,20.1,20.7,20.1c2.7,0,5.4-0.3,8-0.8c5.2-1.2,31.9-8.8,33.7-42.6
	c0-28.5-28.8-32.8-42.3-32.8c-26.2,0-48.1,15.3-61,43.5c-19.3,0-38.5,8.6-38.5,16.7c0,7.2,4.3,12.9,11.5,12.9h47.1v0.6l-31.4,5.6
	c-3,13.1-4.4,26.4-4.3,39.8c0,34.8,11.5,85.4,21.9,115h-0.6c-5.8-10.6-16.6-33.6-19.8-46.6c-18.7,0.9-39.6,16.1-39.6,34.8
	c0,16.1,16.4,27.6,57.6,27.6c36.5,0,57.8-9.2,57.8-40.3c0-10.1-4-23-4.9-33.4c3-4.2,5.6-8.6,7.9-13.2c4.1,19.2,13.3,33,26.9,33
	c22.5,0.1,36.2-19.3,52-79.7h0.6c-1.8,10.1-7.4,32.7-8.7,43.3c3.2,19,9.6,36.4,31.5,36.4c16.9,0,24.7-6.3,28.1-15
	c6.3,8.8,15.8,15,28.8,15c9.8,0,17.4-1.9,28.9-12.5c-8.1-10.1-14.5-24.3-21.4-38.1l0.6-0.3c19,27.1,40.3,50.9,64.5,50.9
	c41.4,0,54.1-70.2,54.1-88.9C452.1,175.1,449.5,171.4,444.9,170.5z M224.3,207.9h-0.6c3.3-36.5,17-60.7,23.9-63.6
	C241.2,165,233.2,190.6,224.3,207.9z"/>
</svg>
