<svg xmlns="http://www.w3.org/2000/svg" viewBox="0 0 500 400"><title>Zeichenfläche 1 Kopie 5</title><path d="M444.93348,170.50214c-3.45285,12.66259-13.52511,32.23271-25.32425,32.23271a21.27151,21.27151,0,0,1-14.38855-5.46785c13.23791-24.17269,25.03613-39.4256,38.84936-53.81507-5.755-15.82731-22.1586-25.61053-39.13748-25.61053-13.81322,0-25.45312,4.73144-34.08662,18.83371,6.04318,14.38947,13.36678,30.95135,22.86372,45.339l-.57624.57625c-10.93478-13.526-32.80618-42.01593-39.7128-64.74893C321.47788,122.15677,308.24,140,308.24,161.58237c0,12.66074,4.60441,26.763,12.94979,40l.57624,1.43969c-4.60441,4.31536-8.3463,6.33129-11.79914,6.33129-6.83574,0-9.61293-2.5405-11.57546-6.70261.98449-30.5179,6.32945-55.09469,15.64689-72.43579-7.48194-7.19473-20.1436-12.37354-32.23086-12.37354-9.78414,0-15.38087.70327-22.28748,5.02048,8.05726,4.89161,14.80554,15.98564,21.13683,24.04382l-.57532.57624c-21.58328-21.008-40.289-29.64054-56.11635-29.64054a42.16956,42.16956,0,0,0-18.02733,4.00976c-3.07682,9.9641-11.00658,27.30393-29.68657,32.92746a134.22805,134.22805,0,0,0-11.25788,39.99954,167.08413,167.08413,0,0,1-10.06858,16.30022c0-18.12859,0-34.37382,5.75505-54.2293-15.82731,0-21.29516-11.67027-21.29516-24.04381,0-12.94979,6.3313-29.35334,15.252-41.15248h.57532c-5.17973,8.63258-12.94978,25.89957-12.94978,39.4256,0,11.2229,5.46785,20.14452,20.71984,20.14452a39.07845,39.07845,0,0,0,8.002-.84032c5.17007-1.16422,31.87969-8.79976,33.72578-42.61529,0-28.488-28.778-32.80526-42.30312-32.80526-26.18769,0-48.05818,15.25291-61.008,43.45376-19.28108,0-38.4922,8.63442-38.4922,16.69075,0,7.19474,4.31721,12.94979,11.511,12.94979h47.12477v.57624l-31.36742,5.62618a170.68907,170.68907,0,0,0-4.31629,39.84167c0,34.82119,11.54048,85.39789,21.89994,115.04026h-.57532c-5.756-10.64666-16.59134-33.60058-19.757-46.55037-18.70483.86528-39.55446,16.11635-39.55446,34.82119,0,16.11635,16.40355,27.62645,57.55511,27.62645,36.54807,0,57.84323-9.20881,57.84323-40.289,0-10.07041-4.02909-23.0202-4.89253-33.3815a99.32269,99.32269,0,0,0,7.945-13.167c4.12943,19.18443,13.2867,32.95554,26.85046,33.02435,22.51669.11414,36.17159-19.27556,51.9989-79.70911h.57624c-1.78028,10.07041-7.43591,32.693-8.67492,43.31937,3.16564,18.99387,9.62581,36.38974,31.49629,36.38974,16.89879,0,24.6983-6.25282,28.113-15.04936,6.34924,8.80966,15.76287,15.04936,28.8245,15.04936,9.78414,0,17.39586-1.85576,28.906-12.50426-8.05726-10.07042-14.51742-24.331-21.424-38.14424l.57532-.289c18.993,27.052,40.289,50.93754,64.46173,50.93754,41.43968,0,54.10226-70.21678,54.10226-88.92161C452.12821,175.10839,449.53789,171.36742,444.93348,170.50214ZM224.25231,207.91366H223.677c3.324-36.491,16.97888-60.72076,23.88549-63.59829C241.23119,165.03429,233.17393,190.64666,224.25231,207.91366Z" fill="#0089de"/></svg>