<svg xmlns="http://www.w3.org/2000/svg" viewBox="0 0 500 400"><title>fax logo white</title><path d="M444.9,170.5c-3.5,12.7-13.5,32.2-25.3,32.2a21.41386,21.41386,0,0,1-14.4-5.5c13.2-24.2,25-39.4,38.8-53.8-5.8-15.8-22.2-25.6-39.1-25.6-13.8,0-25.5,4.7-34.1,18.8,6,14.4,13.4,31,22.9,45.3l-.6.6c-10.9-13.5-32.8-42-39.7-64.7-31.9,4.3-45.2,22.2-45.2,43.7,0,12.7,4.6,26.8,12.9,40l.6,1.4c-4.6,4.3-8.3,6.3-11.8,6.3-6.8,0-9.6-2.5-11.6-6.7,1-30.5,6.3-55.1,15.6-72.4-7.5-7.2-20.1-12.4-32.2-12.4-9.8,0-15.4.7-22.3,5,8.1,4.9,14.8,16,21.1,24l-.6.6c-21.6-21-40.3-29.6-56.1-29.6a42.97513,42.97513,0,0,0-18,4c-3.1,10-11,27.3-29.7,32.9a136.47205,136.47205,0,0,0-11.3,40,152.26891,152.26891,0,0,1-10.1,16.3c0-18.1,0-34.4,5.8-54.2-15.8,0-21.3-11.7-21.3-24,0-12.9,6.3-29.4,15.3-41.2h.6c-5.2,8.6-12.9,25.9-12.9,39.4,0,11.2,5.5,20.1,20.7,20.1a42.55332,42.55332,0,0,0,8-.8c5.2-1.2,31.9-8.8,33.7-42.6,0-28.5-28.8-32.8-42.3-32.8-26.2,0-48.1,15.3-61,43.5-19.3,0-38.5,8.6-38.5,16.7,0,7.2,4.3,12.9,11.5,12.9h47.1v.6L90,154.1a172.10825,172.10825,0,0,0-4.3,39.8c0,34.8,11.5,85.4,21.9,115H107c-5.8-10.6-16.6-33.6-19.8-46.6-18.7.9-39.6,16.1-39.6,34.8,0,16.1,16.4,27.6,57.6,27.6,36.5,0,57.8-9.2,57.8-40.3,0-10.1-4-23-4.9-33.4a98.01217,98.01217,0,0,0,7.9-13.2c4.1,19.2,13.3,33,26.9,33,22.5.1,36.2-19.3,52-79.7h.6c-1.8,10.1-7.4,32.7-8.7,43.3,3.2,19,9.6,36.4,31.5,36.4,16.9,0,24.7-6.3,28.1-15,6.3,8.8,15.8,15,28.8,15,9.8,0,17.4-1.9,28.9-12.5-8.1-10.1-14.5-24.3-21.4-38.1l.6-.3c19,27.1,40.3,50.9,64.5,50.9,41.4,0,54.1-70.2,54.1-88.9C452.1,175.1,449.5,171.4,444.9,170.5ZM224.3,207.9h-.6c3.3-36.5,17-60.7,23.9-63.6C241.2,165,233.2,190.6,224.3,207.9Z" fill="#fff"/></svg>
